<svg width="38" height="38" viewBox="0 0 38 38" fill="none" xmlns="http://www.w3.org/2000/svg">
<path d="M21.3958 2.46875C21.3958 1.1053 20.2905 0 18.9271 0C17.5636 0 16.4583 1.1053 16.4583 2.46875V16.4583H2.46875C1.1053 16.4583 0 17.5636 0 18.9271C0 20.2905 1.1053 21.3958 2.46875 21.3958H16.4583V35.3854C16.4583 36.7489 17.5636 37.8542 18.9271 37.8542C20.2905 37.8542 21.3958 36.7489 21.3958 35.3854V21.3958H35.3854C36.7489 21.3958 37.8542 20.2905 37.8542 18.9271C37.8542 17.5636 36.7489 16.4583 35.3854 16.4583H21.3958V2.46875Z" fill="white"/>
</svg>
